<svg xmlns="http://www.w3.org/2000/svg" width="32" height="32" id="game"><g fill-rule="evenodd" transform="translate(0 -1020.362)"><circle cx="16" cy="1036.362" r="16" fill="#e64c65"></circle><path style="line-height:normal;text-indent:0;text-align:start;text-decoration-line:none;text-decoration-style:solid;text-decoration-color:#000;text-transform:none;block-progression:tb;isolation:auto;mix-blend-mode:normal" fill="#cd244a" d="M17.47 31.918a16 16 0 0 0 1.249-.15 16 16 0 0 0 1.56-.352 16 16 0 0 0 1.518-.504 16 16 0 0 0 1.46-.652 16 16 0 0 0 1.388-.797 16 16 0 0 0 1.3-.93 16 16 0 0 0 1.201-1.054 16 16 0 0 0 1.092-1.172 16 16 0 0 0 .967-1.272 16 16 0 0 0 .836-1.365 16 16 0 0 0 .695-1.44 16 16 0 0 0 .55-1.501 16 16 0 0 0 .003-.018L19.576 8.998c-.064-.064-.129-.126-.193-.187-1.128-1.08-2.288-1.803-3.406-1.803-.105 0-.211.014-.317.027a4.726 4.726 0 0 0-.305-.273 3.12 3.12 0 0 0-1.294-.639 4.01 4.01 0 0 0-.647-.092h-.002a5.507 5.507 0 0 0-.764.01c-.553.043-1.197.163-1.959.377a.387.387 0 0 0 .21.746l.607.607c-.394.2-.79.403-1.186.637a.387.387 0 1 0 .393.666l.857.858a19.146 19.146 0 0 0-2.066 3.033c-.885 1.609-1.566 3.36-1.854 5.017-.287 1.659-.187 3.24.569 4.47l.002.001c.167.268.361.516.568.752.048.055.095.11.145.162.045.049.087.101.134.149l8.403 8.402z" clip-rule="evenodd" color="#000" font-family="sans-serif" font-weight="400" transform="translate(0 1020.362)"></path><path style="line-height:normal;text-indent:0;text-align:start;text-decoration-line:none;text-decoration-style:solid;text-decoration-color:#000;text-transform:none;block-progression:tb;isolation:auto;mix-blend-mode:normal" fill="#fff" d="M13.413 1026.393a5.497 5.497 0 0 0-.764.01c-.553.043-1.197.164-1.96.378a.387.387 0 1 0 .21.745c1.416-.398 2.324-.425 2.943-.293-.16.034-.321.068-.49.12-.933.281-1.994.804-3.032 1.418a.387.387 0 1 0 .393.665c1.004-.593 2.031-1.091 2.863-1.343.204-.062.395-.107.57-.138a8.723 8.723 0 0 0-1.549 1.217c-1.12 1.08-2.209 2.545-3.093 4.154-.885 1.61-1.566 3.36-1.853 5.02-.288 1.657-.187 3.239.568 4.468v.002c1.497 2.393 4.657 3.525 7.78 3.525 3.125 0 6.285-1.132 7.78-3.525v-.001l.002-.001c.755-1.23.856-2.812.568-4.47-.289-1.659-.972-3.409-1.859-5.018s-1.98-3.075-3.107-4.154c-1.128-1.08-2.288-1.802-3.406-1.802-.105 0-.21.013-.316.026-.378-.363-.864-.742-1.6-.91a4.014 4.014 0 0 0-.65-.092zm-.843 5.522a.387.387 0 0 1 .255.077l3.121 2.254 3.163-2.213a.387.387 0 1 1 .443.635l-.319.222c.59.415.814 1.174.606 1.85-.242.787-1.038 1.27-1.863 1.151h-.002c-.642-.098-1.142-.582-1.32-1.197l-.49.342a.387.387 0 0 1-.448 0l-.364-.263c-.197.579-.685 1.027-1.301 1.121h-.002c-.82.117-1.607-.361-1.854-1.14a1.606 1.606 0 0 1 .559-1.858l-.38-.274a.387.387 0 0 1 .198-.704zm5.977 1.456-1.197.835c0 .465.336.853.736.916.474.068.884-.19 1.014-.612.136-.443-.011-.869-.441-1.067a.387.387 0 0 1-.112-.075zm-5.125.01a.387.387 0 0 1-.093.063.823.823 0 0 0-.416 1.045l.006.012.003.014c.13.422.54.68 1.014.612.383-.06.695-.418.725-.853l-1.24-.893zm.327.646a.283.283 0 0 1 .02 0 .283.283 0 0 1 .282.283.283.283 0 0 1-.283.283.283.283 0 0 1-.282-.283.283.283 0 0 1 .263-.283zm4.478 0a.283.283 0 0 1 .02 0 .283.283 0 0 1 .282.283.283.283 0 0 1-.283.283.283.283 0 0 1-.282-.283.283.283 0 0 1 .262-.283zm-3.052 2.77h1.651l.816.76 1.62 1.675-3.286 3.231-3.234-3.234 1.617-1.673.816-.76zm.304.773-.577.538-.844.873 1.921.582 1.962-.585-.842-.87-.577-.538h-1.043zm1.965 2.365-1.466.437-1.433-.434 1.436 1.436 1.463-1.44z" clip-rule="evenodd" color="#000" font-family="sans-serif" font-weight="400" overflow="visible"></path></g></svg>